<?xml version="1.0" encoding="utf-8" standalone="no"?>
<!DOCTYPE svg PUBLIC "-//W3C//DTD SVG 1.1//EN"
  "http://www.w3.org/Graphics/SVG/1.1/DTD/svg11.dtd">
<svg xmlns:xlink="http://www.w3.org/1999/xlink" width="937.8pt" height="473.184pt" viewBox="0 0 937.8 473.184" xmlns="http://www.w3.org/2000/svg" version="1.1">
 <metadata>
  <rdf:RDF xmlns:dc="http://purl.org/dc/elements/1.1/" xmlns:cc="http://creativecommons.org/ns#" xmlns:rdf="http://www.w3.org/1999/02/22-rdf-syntax-ns#">
   <cc:Work>
    <dc:type rdf:resource="http://purl.org/dc/dcmitype/StillImage"/>
    <dc:date>2026-08-27T06:41:52.493741</dc:date>
    <dc:format>image/svg+xml</dc:format>
    <dc:creator>
     <cc:Agent>
      <dc:title>Matplotlib v3.10.8, https://matplotlib.org/</dc:title>
     </cc:Agent>
    </dc:creator>
   </cc:Work>
  </rdf:RDF>
 </metadata>
 <defs>
  <style type="text/css">*{stroke-linejoin: round; stroke-linecap: butt}</style>
 </defs>
 <g id="figure_1">
  <g id="patch_1">
   <path d="M 0 473.184
L 937.8 473.184
L 937.8 0
L 0 0
z
" style="fill: #ffffff"/>
  </g>
  <g id="axes_1">
   <g id="patch_2">
    <path d="M 63.5274 182.455488
L 190.9566 182.455488
Q 207.5778 182.455488 207.5778 174.197376
L 207.5778 120.060864
Q 207.5778 111.802752 190.9566 111.802752
L 63.5274 111.802752
Q 46.9062 111.802752 46.9062 120.060864
L 46.9062 174.197376
Q 46.9062 182.455488 63.5274 182.455488
z
" clip-path="url(#pb037ffdfe8)" style="fill: #ffffff; stroke: #2f80ed; stroke-width: 1.3; stroke-linejoin: miter"/>
   </g>
   <g id="patch_3">
    <path d="M 127.242 178.95362
Q 127.242 211.359499 127.242 242.423738
" clip-path="url(#pb037ffdfe8)" style="fill: none; stroke: #2f80ed; stroke-width: 1.2; stroke-linecap: round"/>
    <path d="M 129.842 237.223738
L 127.242 242.423738
L 124.642 237.223738
z
" clip-path="url(#pb037ffdfe8)" style="fill: #2f80ed; stroke: #2f80ed; stroke-width: 1.2; stroke-linecap: round"/>
   </g>
   <g id="patch_4">
    <path d="M 234.3564 182.455488
L 361.7856 182.455488
Q 378.4068 182.455488 378.4068 174.197376
L 378.4068 120.060864
Q 378.4068 111.802752 361.7856 111.802752
L 234.3564 111.802752
Q 217.7352 111.802752 217.7352 120.060864
L 217.7352 174.197376
Q 217.7352 182.455488 234.3564 182.455488
z
" clip-path="url(#pb037ffdfe8)" style="fill: #ffffff; stroke: #f4a261; stroke-width: 1.3; stroke-linejoin: miter"/>
   </g>
   <g id="patch_5">
    <path d="M 298.071 178.95362
Q 298.071 211.359499 298.071 242.423738
" clip-path="url(#pb037ffdfe8)" style="fill: none; stroke: #f4a261; stroke-width: 1.2; stroke-linecap: round"/>
    <path d="M 300.671 237.223738
L 298.071 242.423738
L 295.471 237.223738
z
" clip-path="url(#pb037ffdfe8)" style="fill: #f4a261; stroke: #f4a261; stroke-width: 1.2; stroke-linecap: round"/>
   </g>
   <g id="patch_6">
    <path d="M 405.1854 182.455488
L 532.6146 182.455488
Q 549.2358 182.455488 549.2358 174.197376
L 549.2358 120.060864
Q 549.2358 111.802752 532.6146 111.802752
L 405.1854 111.802752
Q 388.5642 111.802752 388.5642 120.060864
L 388.5642 174.197376
Q 388.5642 182.455488 405.1854 182.455488
z
" clip-path="url(#pb037ffdfe8)" style="fill: #ffffff; stroke: #e76f51; stroke-width: 1.3; stroke-linejoin: miter"/>
   </g>
   <g id="patch_7">
    <path d="M 468.9 178.95362
Q 468.9 211.359499 468.9 242.423738
" clip-path="url(#pb037ffdfe8)" style="fill: none; stroke: #e76f51; stroke-width: 1.2; stroke-linecap: round"/>
    <path d="M 471.5 237.223738
L 468.9 242.423738
L 466.3 237.223738
z
" clip-path="url(#pb037ffdfe8)" style="fill: #e76f51; stroke: #e76f51; stroke-width: 1.2; stroke-linecap: round"/>
   </g>
   <g id="patch_8">
    <path d="M 576.0144 182.455488
L 703.4436 182.455488
Q 720.0648 182.455488 720.0648 174.197376
L 720.0648 120.060864
Q 720.0648 111.802752 703.4436 111.802752
L 576.0144 111.802752
Q 559.3932 111.802752 559.3932 120.060864
L 559.3932 174.197376
Q 559.3932 182.455488 576.0144 182.455488
z
" clip-path="url(#pb037ffdfe8)" style="fill: #ffffff; stroke: #2a9d8f; stroke-width: 1.3; stroke-linejoin: miter"/>
   </g>
   <g id="patch_9">
    <path d="M 639.729 178.95362
Q 639.729 211.359499 639.729 242.423738
" clip-path="url(#pb037ffdfe8)" style="fill: none; stroke: #2a9d8f; stroke-width: 1.2; stroke-linecap: round"/>
    <path d="M 642.329 237.223738
L 639.729 242.423738
L 637.129 237.223738
z
" clip-path="url(#pb037ffdfe8)" style="fill: #2a9d8f; stroke: #2a9d8f; stroke-width: 1.2; stroke-linecap: round"/>
   </g>
   <g id="patch_10">
    <path d="M 746.8434 182.455488
L 874.2726 182.455488
Q 890.8938 182.455488 890.8938 174.197376
L 890.8938 120.060864
Q 890.8938 111.802752 874.2726 111.802752
L 746.8434 111.802752
Q 730.2222 111.802752 730.2222 120.060864
L 730.2222 174.197376
Q 730.2222 182.455488 746.8434 182.455488
z
" clip-path="url(#pb037ffdfe8)" style="fill: #ffffff; stroke: #6c63ff; stroke-width: 1.3; stroke-linejoin: miter"/>
   </g>
   <g id="patch_11">
    <path d="M 810.558 178.95362
Q 810.558 211.359499 810.558 242.423738
" clip-path="url(#pb037ffdfe8)" style="fill: none; stroke: #6c63ff; stroke-width: 1.2; stroke-linecap: round"/>
    <path d="M 813.158 237.223738
L 810.558 242.423738
L 807.958 237.223738
z
" clip-path="url(#pb037ffdfe8)" style="fill: #6c63ff; stroke: #6c63ff; stroke-width: 1.2; stroke-linecap: round"/>
   </g>
   <g id="patch_12">
    <path d="M 86.6124 352.205568
L 851.1876 352.205568
Q 867.8088 352.205568 867.8088 343.947456
L 867.8088 266.871744
Q 867.8088 258.613632 851.1876 258.613632
L 86.6124 258.613632
Q 69.9912 258.613632 69.9912 266.871744
L 69.9912 343.947456
Q 69.9912 352.205568 86.6124 352.205568
z
" clip-path="url(#pb037ffdfe8)" style="fill: #f7f9fc; stroke: #c9d2df; stroke-width: 1.3; stroke-linejoin: miter"/>
   </g>
   <g id="metric_cards">
    <rect x="75.242" y="276.5" width="104" height="42" rx="7" clip-path="url(#pb037ffdfe8)" style="fill: #ffffff; stroke: #2f80ed; stroke-width: 1.05"/>
    <rect x="221.22" y="276.5" width="126" height="42" rx="7" clip-path="url(#pb037ffdfe8)" style="fill: #ffffff; stroke: #f4a261; stroke-width: 1.05"/>
    <rect x="378.198" y="276.5" width="126" height="42" rx="7" clip-path="url(#pb037ffdfe8)" style="fill: #ffffff; stroke: #e76f51; stroke-width: 1.05"/>
    <rect x="535.176" y="276.5" width="126" height="42" rx="7" clip-path="url(#pb037ffdfe8)" style="fill: #ffffff; stroke: #2a9d8f; stroke-width: 1.05"/>
    <rect x="684.154" y="276.5" width="142" height="42" rx="7" clip-path="url(#pb037ffdfe8)" style="fill: #ffffff; stroke: #6c63ff; stroke-width: 1.05"/>
   </g>
   <g id="patch_13" style="display: none">
    <path d="M 127.242 329.266368
C 131.405105 329.266368 135.398261 328.444582 138.342021 326.981998
C 141.285781 325.519414 142.9398 323.535446 142.9398 321.46704
C 142.9398 319.398634 141.285781 317.414666 138.342021 315.952082
C 135.398261 314.489498 131.405105 313.667712 127.242 313.667712
C 123.078895 313.667712 119.085739 314.489498 116.141979 315.952082
C 113.198219 317.414666 111.5442 319.398634 111.5442 321.46704
C 111.5442 323.535446 113.198219 325.519414 116.141979 326.981998
C 119.085739 328.444582 123.078895 329.266368 127.242 329.266368
z
" clip-path="url(#pb037ffdfe8)" style="fill: #ffffff; stroke: #c9d2df; stroke-width: 1.2; stroke-linejoin: miter"/>
   </g>
   <g id="patch_14" style="display: none">
    <path d="M 284.22 329.266368
C 288.383105 329.266368 292.376261 328.444582 295.320021 326.981998
C 298.263781 325.519414 299.9178 323.535446 299.9178 321.46704
C 299.9178 319.398634 298.263781 317.414666 295.320021 315.952082
C 292.376261 314.489498 288.383105 313.667712 284.22 313.667712
C 280.056895 313.667712 276.063739 314.489498 273.119979 315.952082
C 270.176219 317.414666 268.5222 319.398634 268.5222 321.46704
C 268.5222 323.535446 270.176219 325.519414 273.119979 326.981998
C 276.063739 328.444582 280.056895 329.266368 284.22 329.266368
z
" clip-path="url(#pb037ffdfe8)" style="fill: #ffffff; stroke: #c9d2df; stroke-width: 1.2; stroke-linejoin: miter"/>
   </g>
   <g id="patch_15" style="display: none">
    <path d="M 441.198 329.266368
C 445.361105 329.266368 449.354261 328.444582 452.298021 326.981998
C 455.241781 325.519414 456.8958 323.535446 456.8958 321.46704
C 456.8958 319.398634 455.241781 317.414666 452.298021 315.952082
C 449.354261 314.489498 445.361105 313.667712 441.198 313.667712
C 437.034895 313.667712 433.041739 314.489498 430.097979 315.952082
C 427.154219 317.414666 425.5002 319.398634 425.5002 321.46704
C 425.5002 323.535446 427.154219 325.519414 430.097979 326.981998
C 433.041739 328.444582 437.034895 329.266368 441.198 329.266368
z
" clip-path="url(#pb037ffdfe8)" style="fill: #ffffff; stroke: #c9d2df; stroke-width: 1.2; stroke-linejoin: miter"/>
   </g>
   <g id="patch_16" style="display: none">
    <path d="M 598.176 329.266368
C 602.339105 329.266368 606.332261 328.444582 609.276021 326.981998
C 612.219781 325.519414 613.8738 323.535446 613.8738 321.46704
C 613.8738 319.398634 612.219781 317.414666 609.276021 315.952082
C 606.332261 314.489498 602.339105 313.667712 598.176 313.667712
C 594.012895 313.667712 590.019739 314.489498 587.075979 315.952082
C 584.132219 317.414666 582.4782 319.398634 582.4782 321.46704
C 582.4782 323.535446 584.132219 325.519414 587.075979 326.981998
C 590.019739 328.444582 594.012895 329.266368 598.176 329.266368
z
" clip-path="url(#pb037ffdfe8)" style="fill: #ffffff; stroke: #c9d2df; stroke-width: 1.2; stroke-linejoin: miter"/>
   </g>
   <g id="patch_17" style="display: none">
    <path d="M 755.154 329.266368
C 759.317105 329.266368 763.310261 328.444582 766.254021 326.981998
C 769.197781 325.519414 770.8518 323.535446 770.8518 321.46704
C 770.8518 319.398634 769.197781 317.414666 766.254021 315.952082
C 763.310261 314.489498 759.317105 313.667712 755.154 313.667712
C 750.990895 313.667712 746.997739 314.489498 744.053979 315.952082
C 741.110219 317.414666 739.4562 319.398634 739.4562 321.46704
C 739.4562 323.535446 741.110219 325.519414 744.053979 326.981998
C 746.997739 328.444582 750.990895 329.266368 755.154 329.266368
z
" clip-path="url(#pb037ffdfe8)" style="fill: #ffffff; stroke: #c9d2df; stroke-width: 1.2; stroke-linejoin: miter"/>
   </g>
   <g id="budget_label_backgrounds">
    <rect x="89.242" y="186.5" width="76" height="17" rx="3" style="fill: #ffffff"/>
    <rect x="260.071" y="186.5" width="76" height="17" rx="3" style="fill: #ffffff"/>
    <rect x="430.9" y="186.5" width="76" height="17" rx="3" style="fill: #ffffff"/>
    <rect x="601.729" y="186.5" width="76" height="17" rx="3" style="fill: #ffffff"/>
    <rect x="772.558" y="186.5" width="76" height="17" rx="3" style="fill: #ffffff"/>
   </g>
   <g id="text_1">
    <text style="font-weight: 700; font-size: 20px; font-family: 'DejaVu Sans'; text-anchor: start; fill: #183b56" x="25.668" y="38.454315" transform="rotate(-0 25.668 38.454315)">A Falsifiable Comparison of Streaming State</text>
   </g>
   <g id="text_2">
    <text style="font-size: 10.5px; font-family: 'DejaVu Sans'; text-anchor: start; fill: #667085" x="25.668" y="54.174999" transform="rotate(-0 25.668 54.174999)">Hold budget, backbone, and compute constant; vary only the state representation</text>
   </g>
   <g id="text_3">
    <text style="font-weight: 700; font-size: 11px; font-family: 'DejaVu Sans'; fill: #1f2937" transform="translate(108.410516 143.335796)">Visual</text>
    <text style="font-weight: 700; font-size: 11px; font-family: 'DejaVu Sans'; fill: #1f2937" transform="translate(101.972937 156.907132)">memory</text>
   </g>
   <g id="text_4">
    <text style="font-size: 8.5px; font-family: 'DejaVu Sans'; text-anchor: middle; fill: #667085" x="127.242" y="197.59536" transform="rotate(-0 127.242 197.59536)">same budget B</text>
   </g>
   <g id="text_5">
    <text style="font-weight: 700; font-size: 11px; font-family: 'DejaVu Sans'; fill: #1f2937" transform="translate(285.140844 143.335796)">Text</text>
    <text style="font-weight: 700; font-size: 11px; font-family: 'DejaVu Sans'; fill: #1f2937" transform="translate(269.410844 156.907132)">summary</text>
   </g>
   <g id="text_6">
    <text style="font-size: 8.5px; font-family: 'DejaVu Sans'; text-anchor: middle; fill: #667085" x="298.071" y="197.59536" transform="rotate(-0 298.071 197.59536)">same budget B</text>
   </g>
   <g id="text_7">
    <text style="font-weight: 700; font-size: 11px; font-family: 'DejaVu Sans'; fill: #1f2937" transform="translate(438.423125 143.335796)">Free-form</text>
    <text style="font-weight: 700; font-size: 11px; font-family: 'DejaVu Sans'; fill: #1f2937" transform="translate(444.180937 156.907132)">thought</text>
   </g>
   <g id="text_8">
    <text style="font-size: 8.5px; font-family: 'DejaVu Sans'; text-anchor: middle; fill: #667085" x="468.9" y="197.59536" transform="rotate(-0 468.9 197.59536)">same budget B</text>
   </g>
   <g id="text_9">
    <text style="font-weight: 700; font-size: 11px; font-family: 'DejaVu Sans'; fill: #1f2937" transform="translate(606.327672 143.378765)">Structured</text>
    <text style="font-weight: 700; font-size: 11px; font-family: 'DejaVu Sans'; fill: #1f2937" transform="translate(618.865094 156.9501)">events</text>
   </g>
   <g id="text_10">
    <text style="font-size: 8.5px; font-family: 'DejaVu Sans'; text-anchor: middle; fill: #667085" x="639.729" y="197.59536" transform="rotate(-0 639.729 197.59536)">same budget B</text>
   </g>
   <g id="text_11">
    <text style="font-weight: 700; font-size: 11px; font-family: 'DejaVu Sans'; fill: #1f2937" transform="translate(790.438312 143.378765)">Latent</text>
    <text style="font-weight: 700; font-size: 11px; font-family: 'DejaVu Sans'; fill: #1f2937" transform="translate(794.584797 156.9501)">state</text>
   </g>
   <g id="text_12">
    <text style="font-size: 8.5px; font-family: 'DejaVu Sans'; text-anchor: middle; fill: #667085" x="810.558" y="197.59536" transform="rotate(-0 810.558 197.59536)">same budget B</text>
   </g>
   <g id="text_13">
    <text style="font-weight: 700; font-size: 9.5px; font-family: 'DejaVu Sans'; text-anchor: middle; fill: #183b56" x="127.242" y="298.52784" transform="rotate(-0 127.242 298.52784)">factual recall</text>
   </g>
   <g id="text_14">
    <text style="font-weight: 700; font-size: 9.5px; font-family: 'DejaVu Sans'; text-anchor: middle; fill: #183b56" x="284.22" y="298.52784" transform="rotate(-0 284.22 298.52784)">temporal order</text>
   </g>
   <g id="text_15">
    <text style="font-weight: 700; font-size: 9.5px; font-family: 'DejaVu Sans'; text-anchor: middle; fill: #183b56" x="441.198" y="298.52784" transform="rotate(-0 441.198 298.52784)">causal links</text>
   </g>
   <g id="text_16">
    <text style="font-weight: 700; font-size: 9.5px; font-family: 'DejaVu Sans'; text-anchor: middle; fill: #183b56" x="598.176" y="298.52784" transform="rotate(-0 598.176 298.52784)">spatial detail</text>
   </g>
   <g id="text_17">
    <text style="font-weight: 700; font-size: 9.5px; font-family: 'DejaVu Sans'; text-anchor: middle; fill: #183b56" x="755.154" y="298.52784" transform="rotate(-0 755.154 298.52784)">future unseen queries</text>
   </g>
   <g id="text_18">
    <text style="font-weight: 700; font-size: 11px; font-family: 'DejaVu Sans'; text-anchor: middle; fill: #183b56" x="468.9" y="387.99072" transform="rotate(-0 468.9 387.99072)">Report accuracy, calibration, state size, update FLOPs, retrieval latency, and failure type</text>
   </g>
   <g id="text_19">
    <text style="font-size: 10px; font-family: 'DejaVu Sans'; text-anchor: middle; fill: #667085" x="468.9" y="424.69344" transform="rotate(-0 468.9 424.69344)">A win on one query family does not establish a universally sufficient state</text>
   </g>
  </g>
 </g>
 <defs>
  <clipPath id="pb037ffdfe8">
   <rect x="7.2" y="7.2" width="923.4" height="458.784"/>
  </clipPath>
 </defs>
</svg>
