<svg xmlns="http://www.w3.org/2000/svg" width="1600" height="900" viewBox="0 0 1600 900" role="img" aria-labelledby="title desc">
  <title id="title">图 1　混合视频编解码器的闭环</title>
  <desc id="desc">预测减少冗余，重建帧回到参考缓冲区，形成编码与解码共享的闭环。</desc>
  <defs>
    <marker id="arrow" viewBox="0 0 10 10" refX="9" refY="5" markerWidth="8" markerHeight="8" orient="auto-start-reverse"><path d="M 0 0 L 10 5 L 0 10 z" fill="context-stroke"/></marker>
    <filter id="shadow" x="-10%" y="-10%" width="120%" height="130%"><feDropShadow dx="0" dy="5" stdDeviation="8" flood-color="#0f172a" flood-opacity="0.10"/></filter>
  </defs>
  <rect width="1600" height="900" fill="#ffffff"/>
  <rect x="28" y="28" width="1544" height="844" rx="30" fill="#f8fafc" stroke="#e2e8f0" stroke-width="2"/>
  <text x="70" y="82" text-anchor="start" font-size="24" font-weight="800" fill="#2563eb">图 1</text>
  <text x="160" y="84" text-anchor="start" font-size="42" font-weight="800" fill="#172033">混合视频编解码器的闭环</text>
  <text x="70" y="122" text-anchor="start" font-size="22" font-weight="500" fill="#5d6678">预测减少冗余，重建帧回到参考缓冲区，形成编码与解码共享的闭环。</text>
  <rect x="72" y="156" width="132" height="44" rx="22" fill="#dbeafe" stroke="#dbeafe" stroke-width="2"/><text x="138" y="186" text-anchor="middle" font-size="20" font-weight="700" fill="#2563eb">编码端</text>
  <rect x="72" y="226" width="190" height="112" rx="22" fill="#fff" stroke="#2563eb" stroke-width="2"/><text x="167" y="273" text-anchor="middle" font-size="28" font-weight="700" fill="#172033">原始画面</text><text x="167" y="312" text-anchor="middle" font-size="21" font-weight="500" fill="#5d6678">当前帧 xₜ</text>
  <rect x="310" y="226" width="220" height="112" rx="22" fill="#dbeafe" stroke="#2563eb" stroke-width="2"/><text x="420" y="273" text-anchor="middle" font-size="28" font-weight="700" fill="#172033">块划分</text><text x="420" y="312" text-anchor="middle" font-size="21" font-weight="500" fill="#5d6678">帧内 / 帧间模式</text>
  <rect x="578" y="226" width="205" height="112" rx="22" fill="#cffafe" stroke="#0891b2" stroke-width="2"/><text x="680.5" y="273" text-anchor="middle" font-size="28" font-weight="700" fill="#172033">预测</text><text x="680.5" y="312" text-anchor="middle" font-size="21" font-weight="500" fill="#5d6678">参考帧 + MV</text>
  <rect x="831" y="226" width="180" height="112" rx="22" fill="#ffedd5" stroke="#ea580c" stroke-width="2"/><text x="921" y="273" text-anchor="middle" font-size="28" font-weight="700" fill="#172033">残差</text><text x="921" y="312" text-anchor="middle" font-size="21" font-weight="500" fill="#5d6678">xₜ − x̂ₜ</text>
  <rect x="1059" y="226" width="215" height="112" rx="22" fill="#ede9fe" stroke="#7c3aed" stroke-width="2"/><text x="1166.5" y="273" text-anchor="middle" font-size="28" font-weight="700" fill="#172033">变换与量化</text><text x="1166.5" y="312" text-anchor="middle" font-size="21" font-weight="500" fill="#5d6678">稀疏化系数</text>
  <rect x="1322" y="226" width="205" height="112" rx="22" fill="#d1fae5" stroke="#059669" stroke-width="2"/><text x="1424.5" y="273" text-anchor="middle" font-size="28" font-weight="700" fill="#172033">熵编码</text><text x="1424.5" y="312" text-anchor="middle" font-size="21" font-weight="500" fill="#5d6678">码流 bitstream</text>
  <line x1="262" y1="282" x2="310" y2="282" stroke="#475569" stroke-width="3" marker-end="url(#arrow)"/><line x1="530" y1="282" x2="578" y2="282" stroke="#475569" stroke-width="3" marker-end="url(#arrow)"/><line x1="783" y1="282" x2="831" y2="282" stroke="#475569" stroke-width="3" marker-end="url(#arrow)"/><line x1="1011" y1="282" x2="1059" y2="282" stroke="#475569" stroke-width="3" marker-end="url(#arrow)"/><line x1="1274" y1="282" x2="1322" y2="282" stroke="#475569" stroke-width="3" marker-end="url(#arrow)"/>
  <rect x="72" y="430" width="132" height="44" rx="22" fill="#d1fae5" stroke="#d1fae5" stroke-width="2"/><text x="138" y="460" text-anchor="middle" font-size="20" font-weight="700" fill="#059669">闭环重建</text>
  <rect x="1118" y="492" width="210" height="112" rx="22" fill="#ede9fe" stroke="#7c3aed" stroke-width="2"/><text x="1223" y="539" text-anchor="middle" font-size="25" font-weight="700" fill="#172033">反量化 / 反变换</text><text x="1223" y="578" text-anchor="middle" font-size="21" font-weight="500" fill="#5d6678">局部重建残差</text>
  <rect x="831" y="492" width="210" height="112" rx="22" fill="#ffedd5" stroke="#ea580c" stroke-width="2"/><text x="936" y="539" text-anchor="middle" font-size="28" font-weight="700" fill="#172033">重建画面</text><text x="936" y="578" text-anchor="middle" font-size="21" font-weight="500" fill="#5d6678">预测 + 残差</text>
  <rect x="544" y="492" width="210" height="112" rx="22" fill="#cffafe" stroke="#0891b2" stroke-width="2"/><text x="649" y="539" text-anchor="middle" font-size="28" font-weight="700" fill="#172033">环路滤波</text><text x="649" y="578" text-anchor="middle" font-size="21" font-weight="500" fill="#5d6678">去块 / SAO</text>
  <rect x="257" y="492" width="210" height="112" rx="22" fill="#dbeafe" stroke="#2563eb" stroke-width="2"/><text x="362" y="539" text-anchor="middle" font-size="28" font-weight="700" fill="#172033">参考帧缓冲区</text><text x="362" y="578" text-anchor="middle" font-size="21" font-weight="500" fill="#5d6678">供后续帧预测</text>
  <line x1="1118" y1="548" x2="1041" y2="548" stroke="#475569" stroke-width="3" marker-end="url(#arrow)"/><line x1="831" y1="548" x2="754" y2="548" stroke="#475569" stroke-width="3" marker-end="url(#arrow)"/><line x1="544" y1="548" x2="467" y2="548" stroke="#475569" stroke-width="3" marker-end="url(#arrow)"/>
  <path d="M 1425 338 L 1425 548 L 1328 548" fill="none" stroke="#059669" stroke-width="3" marker-end="url(#arrow)"/>
  <path d="M 362 492 L 362 400 L 680 400 L 680 338" fill="none" stroke="#2563eb" stroke-width="3" marker-end="url(#arrow)"/>
  <text x="682" y="386" text-anchor="middle" font-size="20" font-weight="700" fill="#2563eb">重建参考</text>
  <rect x="286" y="688" width="1028" height="92" rx="20" fill="#fff" stroke="#cbd5e1" stroke-width="2"/>
  <text x="800" y="723" text-anchor="middle" font-size="23" font-weight="650" fill="#172033">编码器必须在本地重建同一参考帧</text><text x="800" y="757" text-anchor="middle" font-size="23" font-weight="650" fill="#172033">否则后续运动补偿会与解码器逐帧漂移</text>
  <text x="1530" y="842" text-anchor="end" font-size="18" font-weight="600" fill="#94a3b8">Codec-Native Video · Technical Report</text>
</svg>